<svg version="1.1" xmlns="http://www.w3.org/2000/svg" xmlns:xlink="http://www.w3.org/1999/xlink" width="168.25182" height="61.78112" viewBox="0,0,168.25182,61.78112"><g transform="translate(-155.88543,-145.43403)"><g data-paper-data="{&quot;isPaintingLayer&quot;:true}" fill-rule="nonzero" stroke-linecap="butt" stroke-linejoin="miter" stroke-miterlimit="10" stroke-dasharray="" stroke-dashoffset="0" style="mix-blend-mode: normal"><path d="M175.12638,204.40411l-16.84037,-25.52256l16.84037,-25.21393h129.23446l17.35315,24.85524l-17.35315,25.88125z" fill="#9eb8ff" stroke="#000000" stroke-width="4"/><text transform="translate(201.21765,193.8969) scale(1.03629,1.03629)" font-size="40" xml:space="preserve" fill="#000000" fill-rule="nonzero" stroke="#000000" stroke-width="2" stroke-linecap="butt" stroke-linejoin="miter" stroke-miterlimit="10" stroke-dasharray="" stroke-dashoffset="0" font-family="Sans Serif" font-weight="normal" text-anchor="start" style="mix-blend-mode: normal"><tspan x="0" dy="0">Play</tspan></text><path d="M177.33266,200.82637l1.61012,-10.86837c0,0 7.20637,-7.61822 9.64853,-8.33977c1.68946,-0.49916 7.76531,0.11307 8.56982,3.88967c0.73623,3.45604 5.53103,-4.80814 5.53103,-4.80814c0,0 -2.03404,6.60083 0.61052,5.52227c2.37226,-0.96751 0.19454,5.20676 0.19454,6.15116c0,0.89139 14.47426,9.59173 4.45029,7.83987c-2.67103,-0.46681 -6.46295,-0.68657 -6.46295,0.21077c0,3.30036 -4.83039,2.01266 -4.83039,2.01266c0,0 -3.48693,1.32387 -6.88105,-0.26873c-2.45686,-1.15282 -4.67348,0.26873 -6.40251,0.26873c-3.38668,0 -6.03797,-1.61013 -6.03797,-1.61013z" fill="#0cd600" stroke="none" stroke-width="0"/><path d="M235.23396,166.14531c0,0 1.518,-0.48508 1.72131,-1.85742c0.29702,-2.00489 1.49895,-3.3755 1.49895,-3.3755c0,0 2.77851,-0.77518 5.22067,-1.49673c1.68945,-0.49916 0.51974,-5.92491 1.32425,-2.14831c0.73623,3.45604 -3.32467,3.2425 -3.32467,3.2425c0,0 1.58874,2.17298 4.23331,1.09442c2.37226,-0.96751 -4.23331,3.1941 -4.23331,4.1385c0,0.89139 14.07172,7.17654 4.04776,5.42467c-2.67102,-0.46681 -5.65789,-6.72454 -5.65789,-5.8272c0,3.30036 8.8557,4.83038 8.8557,4.83038c0,0 -3.48693,1.32387 -6.88105,-0.26873c-2.45686,-1.15282 -4.67347,0.26873 -6.40251,0.26873c-3.38668,0 -0.40253,-4.02532 -0.40253,-4.02532z" fill="#0cd600" stroke="none" stroke-width="0"/><path d="M291.82136,176.039c0,0 1.518,-0.48508 1.72131,-1.85741c0.29702,-2.00489 -5.74662,-6.59576 -5.74662,-6.59576c0,0 10.02409,2.44508 12.46625,1.72353c1.68946,-0.49916 5.35012,-11.96289 6.15463,-8.18628c0.73623,3.45604 1.10318,-2.79548 1.10318,-2.79548c0,0 -3.64418,6.60084 -0.99961,5.52227c2.37227,-0.96751 7.03759,4.80423 7.03759,5.74863c0,0.89139 13.26666,9.99426 3.24269,8.24239c-2.67102,-0.46681 -6.46295,-0.68657 -6.46295,0.21078c0,3.30036 -4.83039,2.01266 -4.83039,2.01266c0,0 -3.48693,1.32387 -6.88105,-0.26873c-2.45686,-1.15282 -4.67347,0.26873 -6.40251,0.26873c-3.38668,0 -0.40253,-4.02532 -0.40253,-4.02532z" fill="#0cd600" stroke="none" stroke-width="0"/><text transform="translate(198.60321,190.99197) scale(1.03628,1.03628)" font-size="40" xml:space="preserve" fill="#e0e0e0" fill-rule="nonzero" stroke="#e2e2e2" stroke-width="2" stroke-linecap="butt" stroke-linejoin="miter" stroke-miterlimit="10" stroke-dasharray="" stroke-dashoffset="0" font-family="Sans Serif" font-weight="normal" text-anchor="start" style="mix-blend-mode: normal"><tspan x="0" dy="0">Play</tspan></text></g></g></svg>